<svg width="124" height="124" viewBox="0 0 124 124" fill="none" xmlns="http://www.w3.org/2000/svg">
<path d="M68.7774 62C68.7774 27.9765 42.4622 0.384033 10.013 0.384033H0V27.4687H10.013C28.2139 27.4687 42.9466 42.9347 42.9466 62C42.9466 81.0653 28.2178 96.5312 10.013 96.5312H0V123.616H10.013C42.4661 123.616 68.7774 96.0234 68.7774 62ZM124 37.9622C124 17.2068 107.958 0.388096 88.1524 0.388096H46.8177C56.9896 7.07091 65.3286 16.4065 71.0171 27.4728H88.1485C93.682 27.4728 98.1615 32.169 98.1615 37.9662C98.1615 43.7675 93.682 48.4637 88.1485 48.4637H78.1394C79.7553 57.4134 79.7553 66.5987 78.1394 75.5484H88.1485C93.6626 75.5484 98.1615 80.2447 98.1615 86.0459C98.1615 91.8634 93.682 96.5597 88.1485 96.5597H71.0171C65.3286 107.626 56.9896 116.957 46.8177 123.644H88.1524C96.534 123.644 104.644 120.557 111.081 114.947C126.275 101.658 128.379 77.9818 115.704 62.0325C121.07 55.2603 123.996 46.7575 123.996 37.9703L124 37.9622Z" fill="white"/>
</svg>
