<svg width="153" height="151" viewBox="0 0 153 151" fill="none" xmlns="http://www.w3.org/2000/svg">
<path d="M57.375 18.875H25.5C21.9792 18.875 19.125 21.6919 19.125 25.1667V69.2083C19.125 72.6831 21.9792 75.5 25.5 75.5H57.375C60.8958 75.5 63.75 72.6831 63.75 69.2083V25.1667C63.75 21.6919 60.8958 18.875 57.375 18.875Z" stroke="white" stroke-width="3" stroke-linecap="round" stroke-linejoin="round"/>
<path d="M127.5 18.875H95.625C92.1042 18.875 89.25 21.6919 89.25 25.1667V44.0417C89.25 47.5165 92.1042 50.3333 95.625 50.3333H127.5C131.021 50.3333 133.875 47.5165 133.875 44.0417V25.1667C133.875 21.6919 131.021 18.875 127.5 18.875Z" stroke="white" stroke-width="3" stroke-linecap="round" stroke-linejoin="round"/>
<path d="M127.5 75.5H95.625C92.1042 75.5 89.25 78.3169 89.25 81.7917V125.833C89.25 129.308 92.1042 132.125 95.625 132.125H127.5C131.021 132.125 133.875 129.308 133.875 125.833V81.7917C133.875 78.3169 131.021 75.5 127.5 75.5Z" stroke="white" stroke-width="3" stroke-linecap="round" stroke-linejoin="round"/>
<path d="M57.375 100.667H25.5C21.9792 100.667 19.125 103.484 19.125 106.958V125.833C19.125 129.308 21.9792 132.125 25.5 132.125H57.375C60.8958 132.125 63.75 129.308 63.75 125.833V106.958C63.75 103.484 60.8958 100.667 57.375 100.667Z" stroke="white" stroke-width="3" stroke-linecap="round" stroke-linejoin="round"/>
</svg>
