<svg width="128" height="128" viewBox="0 0 128 128" fill="none" xmlns="http://www.w3.org/2000/svg">
<path d="M56.813 127.586C54.91 127.359 52.914 127.066 52.379 126.934C51.5917 126.747 50.7998 126.581 50.004 126.434C49.0952 126.258 48.1935 126.047 47.301 125.801C43.156 124.613 42.859 124.516 39.734 123.238C36.859 122.066 31.562 119.328 29.75 118.082C29.254 117.738 28.79 117.461 28.719 117.461C28.649 117.461 27.489 116.645 26.141 115.648C17.571 109.305 11.137 101.605 6.488 92.1209C5.688 90.4919 5.035 89.0469 5.035 88.9109C5.035 88.7769 4.891 88.4059 4.715 88.0939C4.352 87.4449 3.835 86.0469 3.418 84.6019C3.23871 83.9879 3.03014 83.3829 2.793 82.7889C2.598 82.3289 2.441 81.7689 2.441 81.5429C2.441 81.3159 2.246 80.5779 2.008 79.8979C1.77 79.2229 1.578 78.4259 1.578 78.1279C1.578 77.8319 1.391 76.8079 1.16 75.8519C0.598 73.4919 0 67.3789 0 63.9529C0 60.5309 0.598 54.4179 1.16 52.0589C1.39 51.1019 1.578 50.0589 1.578 49.7389C1.578 49.4179 1.723 48.7889 1.898 48.3389C2.078 47.8909 2.308 47.0859 2.414 46.5509C2.524 46.0159 2.774 45.0939 2.977 44.4959L3.567 42.7699C4 41.4769 4.402 40.3829 4.594 39.9569C4.704 39.7189 5.133 38.7469 5.551 37.7969C6.227 36.2619 7.676 33.3669 8.523 31.8519C8.832 31.2969 8.949 31.1129 10.621 28.4999C13.27 24.3519 17.797 19.1909 22.011 15.5119C23.496 14.2149 28.457 10.4489 28.68 10.4489C28.742 10.4489 29.21 10.1679 29.723 9.82391C31.07 8.92191 32.391 8.15591 34.113 7.29291C34.7311 6.9872 35.3433 6.66948 35.949 6.33991C36.234 6.17591 36.769 5.92991 39.516 4.69991C40.121 4.42991 40.773 4.18391 42.652 3.52691C43.066 3.38291 43.898 3.07791 44.492 2.85491C45.09 2.63291 45.793 2.44891 46.055 2.44891C46.313 2.44891 46.992 2.26891 47.563 2.04691C48.133 1.82391 49.168 1.56991 49.867 1.48391C50.563 1.40191 51.488 1.20691 51.922 1.05391C52.352 0.905908 53.532 0.713908 54.543 0.628908C55.8607 0.50986 57.1748 0.354802 58.484 0.163908C61.172 -0.230092 67.016 -0.230092 69.676 0.163908C70.9324 0.344202 72.1931 0.492584 73.457 0.608908C74.41 0.687908 75.625 0.886908 76.16 1.05091C76.695 1.21091 77.621 1.41091 78.215 1.48391C78.809 1.56291 79.809 1.80891 80.437 2.03491C81.067 2.26491 81.781 2.44891 82.027 2.44891C82.273 2.44891 82.781 2.58591 83.152 2.75791C83.527 2.92591 84.32 3.20691 84.918 3.38291C85.512 3.56291 86.531 3.91791 87.188 4.17991C87.84 4.44091 88.715 4.78491 89.133 4.94091C89.903 5.23091 95.593 8.07791 96.367 8.56291C102.648 12.4799 105.879 15.0389 110.223 19.5269C115.461 24.9409 118.938 30.0969 122.477 37.6869C122.727 38.2229 123.109 39.0159 123.328 39.4449C123.543 39.8789 123.723 40.3869 123.723 40.5749C123.723 40.7649 123.903 41.3349 124.125 41.8439C124.727 43.2269 125.242 44.8009 125.485 46.0039C125.605 46.5939 125.828 47.3239 125.98 47.6249C126.133 47.9249 126.312 48.6879 126.383 49.3129C126.453 49.9369 126.66 50.9609 126.836 51.5819C127.856 55.1129 128.363 65.5159 127.746 70.1169C127.563 71.4839 127.356 73.1369 127.286 73.7889C127.168 74.9059 126.578 77.7929 126.074 79.7339L125.554 81.7889C124.574 85.7459 122.152 91.3829 119.195 96.5979C118.023 98.6679 114.094 104.266 113.352 104.922C113.285 104.98 112.953 105.372 112.617 105.785C112.281 106.203 111.203 107.371 110.227 108.379C105.926 112.82 102.457 115.566 96.367 119.348C95.645 119.797 89.52 122.789 88.375 123.254C87.781 123.492 86.789 123.894 86.172 124.144C85.559 124.391 84.875 124.598 84.66 124.602C84.445 124.605 83.879 124.797 83.402 125.027C82.926 125.257 82.32 125.449 82.051 125.453C81.785 125.457 81.008 125.645 80.324 125.871C79.641 126.101 78.691 126.348 78.214 126.421C77.738 126.496 76.719 126.699 75.945 126.871C75.172 127.043 72.835 127.379 70.758 127.617C66.1248 128.157 61.4438 128.147 56.813 127.586ZM61.516 115.086C61.816 114.852 62.125 114.386 62.207 114.059C62.387 113.336 91.441 55.0889 91.988 54.3589C92.449 53.7419 92.492 52.7539 92.07 52.4059C91.848 52.2189 89.066 52.1599 81.64 52.1719C76.07 52.1839 71.387 52.1879 71.234 52.1839C71.008 52.1759 70.961 48.4539 70.984 32.5119C71 21.6949 70.949 12.7459 70.871 12.6219C70.793 12.4959 70.488 12.3949 70.191 12.3949C69.773 12.3949 69.578 12.5749 69.321 13.2029C68.836 14.3709 67.496 17.0229 60.973 29.6879C59.6181 32.3162 58.2664 34.9462 56.918 37.5779C55.762 39.8399 53.938 43.3909 52.871 45.4679C49.999 51.0512 47.133 56.6375 44.273 62.2269C39.34 71.8629 38.743 73.0119 38.531 73.2659C38.121 73.7619 37.898 74.9059 38.129 75.3359C38.339 75.7299 38.758 75.7459 49.172 75.7299C55.125 75.7229 60.035 75.7539 60.086 75.7999C60.223 75.9409 60.172 113.11 60.031 113.996C59.938 114.578 60 114.886 60.266 115.152C60.726 115.613 60.852 115.609 61.516 115.086Z" fill="white"/>
</svg>
