<svg width="118" height="136" viewBox="0 0 118 136" fill="none" xmlns="http://www.w3.org/2000/svg">
<g filter="url(#filter0_d_23_54)">
<path d="M104.808 4.63547C104.111 2.97734 102.768 1.70871 101.115 1.14979L101.103 1.1458L101.092 1.14181L101.067 1.13377L101.017 1.1173L100.908 1.08367C100.832 1.06087 100.75 1.03763 100.662 1.01426C100.485 0.967516 100.282 0.920524 100.054 0.87695C99.5972 0.789677 99.0421 0.71659 98.3876 0.684417C97.0735 0.619817 95.3904 0.721087 93.3242 1.17683C89.8785 1.93677 85.4054 3.6728 79.7896 7.23004C79.4225 7.46254 79.0504 7.70283 78.6737 7.95109C78.2964 7.85894 77.9191 7.7699 77.5412 7.68408C67.3008 5.35867 56.7011 5.35867 46.4604 7.68408C46.0824 7.76996 45.7048 7.85894 45.3278 7.95116C44.9508 7.70283 44.5787 7.46254 44.2114 7.23004C38.5896 3.67096 34.1062 1.93525 30.6517 1.17588C28.5806 0.720707 26.8938 0.620007 25.579 0.684353C24.9236 0.7164 24.3686 0.789044 23.9125 0.875684C23.6848 0.91894 23.4828 0.965491 23.3064 1.01172C23.2182 1.03484 23.1366 1.05789 23.0613 1.08038L22.9534 1.11363L22.9031 1.12978L22.8789 1.13776L22.867 1.14168L22.8552 1.14561C21.1886 1.70522 19.8346 2.9862 19.1398 4.66061C16.5518 10.8976 15.8648 17.7752 17.1112 24.3728C17.1718 24.6933 17.2369 25.0132 17.3066 25.3324C17.0394 25.707 16.7798 26.0867 16.5278 26.4712C12.6411 32.4024 10.5738 39.4768 10.6707 46.7413C10.68 62.2996 15.2844 72.9548 23.0714 79.8112C27.4792 83.6923 32.5952 86.0679 37.7368 87.5651C38.3252 87.7368 38.9139 87.8964 39.5019 88.0458C39.4161 88.3403 39.3361 88.6374 39.262 88.9363C38.9506 90.1928 38.7442 91.4829 38.6487 92.792C38.64 92.9105 38.6345 93.0289 38.6324 93.1473L38.4146 104.666L38.4134 104.791C38.4134 104.827 38.4134 104.863 38.4134 104.899C38.0185 104.996 37.617 105.067 37.2113 105.114C35.9612 105.256 34.695 105.152 33.485 104.808C32.2749 104.464 31.144 103.887 30.1574 103.108C29.1708 102.329 28.348 101.363 27.737 100.265L27.674 100.155C25.992 97.2722 23.6686 94.8048 20.8783 92.9402C18.0879 91.0751 14.9042 89.8629 11.568 89.3961C8.05924 88.9053 4.81164 91.3145 4.31429 94.7782C3.81693 98.2412 6.25815 101.447 9.76691 101.937C11.1682 102.134 12.5075 102.643 13.6833 103.429C14.8453 104.205 15.8178 105.232 16.5276 106.433C17.947 108.962 19.8531 111.192 22.1397 112.998C24.4466 114.82 27.0954 116.173 29.9341 116.98C32.6982 117.766 35.5885 118.018 38.4476 117.723C38.4533 119.242 38.4574 120.408 38.4574 121C38.4574 124.498 41.1793 127.333 44.5368 127.333H79.683C83.0402 127.333 85.7622 124.498 85.7622 121V96.9936C85.9277 94.2747 85.6454 91.5494 84.9319 88.9363C84.8337 88.5766 84.7272 88.2188 84.613 87.8634C84.996 87.7691 85.3791 87.6696 85.7622 87.5651C91.0527 86.1268 96.3375 83.7753 100.877 79.8226C108.708 73.0042 113.322 62.3401 113.331 46.7413C113.428 39.4768 111.36 32.4024 107.474 26.4712C107.221 26.0861 106.962 25.7058 106.693 25.3306C106.763 25.012 106.827 24.6928 106.888 24.3728C108.131 17.7626 107.427 10.8724 104.808 4.63547Z" fill="white"/>
</g>
<defs>
<filter id="filter0_d_23_54" x="0.249969" y="0.666748" width="117.084" height="134.667" filterUnits="userSpaceOnUse" color-interpolation-filters="sRGB">
<feFlood flood-opacity="0" result="BackgroundImageFix"/>
<feColorMatrix in="SourceAlpha" type="matrix" values="0 0 0 0 0 0 0 0 0 0 0 0 0 0 0 0 0 0 127 0" result="hardAlpha"/>
<feOffset dy="4"/>
<feGaussianBlur stdDeviation="2"/>
<feComposite in2="hardAlpha" operator="out"/>
<feColorMatrix type="matrix" values="0 0 0 0 0 0 0 0 0 0 0 0 0 0 0 0 0 0 0.25 0"/>
<feBlend mode="normal" in2="BackgroundImageFix" result="effect1_dropShadow_23_54"/>
<feBlend mode="normal" in="SourceGraphic" in2="effect1_dropShadow_23_54" result="shape"/>
</filter>
</defs>
</svg>
