<svg width="105" height="123" viewBox="0 0 105 123" fill="none" xmlns="http://www.w3.org/2000/svg">
<g clip-path="url(#clip0_17_114)">
<path d="M99.22 55.85L99.16 55.62C98.7883 54.3789 98.1208 53.2466 97.2148 52.3205C96.3087 51.3944 95.1914 50.7022 93.9587 50.3035C92.726 49.9047 91.4149 49.8113 90.1382 50.0312C88.8614 50.2511 87.6571 50.7779 86.6289 51.5661C85.6007 52.3544 84.7794 53.3806 84.2355 54.5564C83.6915 55.7323 83.4413 57.0227 83.5064 58.3166C83.5714 59.6106 83.9497 60.8694 84.6088 61.9848C85.2679 63.1002 86.188 64.0388 87.29 64.72L87.41 64.78C89.2239 65.8324 91.3785 66.1304 93.41 65.61L93.65 65.55C95.6654 64.9857 97.3794 63.6541 98.4245 61.8408C99.4695 60.0274 99.7623 57.8767 99.24 55.85H99.22ZM24.61 48.15L35.26 46.91C35.4392 43.8245 36.34 40.824 37.89 38.15L38 38C38.5076 37.1359 39.0827 36.3134 39.72 35.54L32.46 27.29C31.3514 27.9952 30.1404 28.5248 28.87 28.86C25.5499 29.7376 22.0174 29.2658 19.044 27.5477C16.0706 25.8296 13.8977 23.0047 13 19.69C12.5615 18.0508 12.4516 16.3411 12.6764 14.6592C12.9012 12.9773 13.4564 11.3565 14.31 9.89001C15.1029 8.30262 16.2124 6.89435 17.5701 5.75194C18.9279 4.60953 20.5051 3.75717 22.2047 3.24735C23.9043 2.73752 25.6903 2.58104 27.4526 2.78752C29.215 2.99401 30.9164 3.55909 32.4521 4.44797C33.9879 5.33686 35.3254 6.53072 36.3822 7.95604C37.4391 9.38135 38.193 11.0079 38.5975 12.7356C39.0021 14.4633 39.0486 16.2555 38.7343 18.0019C38.42 19.7482 37.7515 21.4118 36.77 22.89C36.62 23.15 36.46 23.4 36.29 23.65L43.61 31.97C46.0474 30.2124 48.8524 29.0318 51.813 28.5172C54.7737 28.0027 57.8125 28.1678 60.7 29L63.5 22.74C61.5602 21.259 60.0887 19.25 59.2617 16.9539C58.4347 14.6578 58.2873 12.1719 58.8373 9.79417C59.3872 7.41642 60.6111 5.24769 62.3624 3.54789C64.1136 1.84808 66.3178 0.689308 68.7109 0.210437C71.104 -0.268434 73.5844 -0.0470872 75.8548 0.84795C78.1253 1.74299 80.0895 3.27375 81.5121 5.25678C82.9346 7.23981 83.7552 9.59098 83.8755 12.0285C83.9957 14.4661 83.4105 16.8866 82.19 19C80.8265 21.362 78.7377 23.2213 76.2337 24.3022C73.7298 25.383 70.9441 25.6277 68.29 25L65.54 31.17C68.7386 33.1593 71.3062 36.0163 72.9438 39.4085C74.5815 42.8006 75.2217 46.5881 74.79 50.33L80 51.76C80.07 51.61 80.15 51.47 80.23 51.33C81.5207 49.118 83.436 47.3365 85.7355 46.209C88.0351 45.0816 90.6164 44.6585 93.1555 44.9929C95.6947 45.3272 98.0785 46.4041 100.008 48.0884C101.937 49.7727 103.326 51.9893 104 54.46C104.874 57.7814 104.398 61.3137 102.676 64.2853C100.954 67.257 98.1262 69.4265 94.81 70.32C91.4952 71.1939 87.9694 70.723 85 69.01L84.79 69C82.7164 67.7709 81.0276 65.9865 79.9144 63.8485C78.8012 61.7104 78.3078 59.3037 78.49 56.9L73.49 55.56C73.228 56.209 72.9309 56.8433 72.6 57.46C70.2269 61.9148 66.2421 65.2951 61.46 66.91C61.3099 66.9545 61.1558 66.9847 61 67V69C61.1328 68.9834 61.2672 68.9834 61.4 69H63.74C63.8696 68.9852 64.0004 68.9852 64.13 69C66.94 69.45 68.34 71.32 69 73.75C69.2733 73.5805 69.5884 73.4904 69.91 73.49H72.25C72.3762 73.4747 72.5038 73.4747 72.63 73.49C75.63 73.96 77.02 76.05 77.63 78.71C77.7767 78.6704 77.928 78.6503 78.08 78.65H80.42C80.5496 78.6354 80.6804 78.6354 80.81 78.65C87.23 79.65 87.14 87.94 87.08 93.34C87.08 95.83 87.18 98.34 87.21 100.81C86.92 106.63 84.28 111.17 81.57 115.81L81.34 116.21C80.3241 118.103 78.8956 119.744 77.16 121.01C75.5917 122.109 73.725 122.702 71.81 122.71H51.6C50.6534 122.745 49.7147 122.526 48.8813 122.076C48.0478 121.626 47.3499 120.961 46.86 120.15C45.8432 118.429 45.2088 116.508 45 114.52L32.33 95.36C31.3318 94.0272 30.4834 92.5885 29.8 91.07C29.2044 89.7858 28.8324 88.4094 28.7 87C28.5652 85.6385 28.7678 84.2647 29.29 83C29.7879 81.8333 30.7257 80.9099 31.9 80.43C32.9853 80.0197 34.1663 79.9328 35.3 80.18C36.8162 80.4999 38.2308 81.1867 39.42 82.18L43.78 85.76L45.19 86.91V65.09C44.8594 65.0211 44.5443 64.8923 44.26 64.71C40.1477 62.0418 37.1694 57.9449 35.9 53.21C35.81 52.88 35.73 52.55 35.66 52.21L25.36 53.41C25.2247 55.2781 24.682 57.094 23.77 58.73L23.69 58.88C22.0204 61.7685 19.2805 63.8833 16.0633 64.7666C12.8461 65.65 9.41049 65.2309 6.50001 63.6L6.35001 63.52C3.45558 61.856 1.33563 59.1161 0.451628 55.8966C-0.432372 52.6771 -0.00884759 49.2387 1.63001 46.33L1.71001 46.18C3.37772 43.2896 6.11765 41.1731 9.3356 40.2895C12.5536 39.4059 15.9901 39.8265 18.9 41.46L19.05 41.54C21.6215 43.0228 23.5896 45.3626 24.61 48.15ZM8.87001 59.41C10.6758 60.413 12.8036 60.6659 14.7941 60.114C16.7847 59.5621 18.4785 58.2497 19.51 56.46L19.58 56.35C20.583 54.5442 20.8359 52.4165 20.284 50.4259C19.7321 48.4353 18.4197 46.7415 16.63 45.71L16.52 45.65C14.7082 44.6511 12.5759 44.4058 10.5846 44.9673C8.59328 45.5288 6.90316 46.8518 5.88001 48.65L5.81001 48.75C4.81852 50.565 4.57731 52.6961 5.13807 54.6868C5.69882 56.6775 7.01694 58.3694 8.81001 59.4L8.92001 59.46L8.87001 59.41ZM74 99.66C74.0295 99.313 74.1882 98.9897 74.4447 98.7541C74.7012 98.5185 75.0368 98.3878 75.385 98.3878C75.7333 98.3878 76.0688 98.5185 76.3253 98.7541C76.5818 98.9897 76.7405 99.313 76.77 99.66V106C76.7405 106.347 76.5818 106.67 76.3253 106.906C76.0688 107.141 75.7333 107.272 75.385 107.272C75.0368 107.272 74.7012 107.141 74.4447 106.906C74.1882 106.67 74.0295 106.347 74 106V99.66ZM65.81 96.87C65.7937 96.6782 65.8174 96.4852 65.8796 96.303C65.9418 96.1209 66.0411 95.9537 66.1713 95.8119C66.3015 95.6702 66.4597 95.557 66.636 95.4796C66.8122 95.4022 67.0025 95.3622 67.195 95.3622C67.3875 95.3622 67.5778 95.4022 67.7541 95.4796C67.9303 95.557 68.0885 95.6702 68.2187 95.8119C68.3489 95.9537 68.4482 96.1209 68.5104 96.303C68.5726 96.4852 68.5963 96.6782 68.58 96.87V106C68.5505 106.347 68.3918 106.67 68.1353 106.906C67.8788 107.141 67.5433 107.272 67.195 107.272C66.8467 107.272 66.5112 107.141 66.2547 106.906C65.9982 106.67 65.8395 106.347 65.81 106V96.87ZM45.19 91.26C45.0973 91.2093 45.0101 91.1489 44.93 91.08C44.08 90.41 42.85 89.41 41.64 88.42L37.26 84.82C36.5093 84.1778 35.6135 83.7282 34.65 83.51C34.1608 83.3911 33.648 83.4119 33.17 83.57C32.8122 83.7332 32.5298 84.0264 32.38 84.39C32.0884 85.1472 31.9854 85.9641 32.08 86.77C32.1861 87.7892 32.4633 88.7831 32.9 89.71C33.4867 90.9924 34.2074 92.2092 35.05 93.34L48 113C48.1467 113.222 48.2392 113.476 48.27 113.74C48.3774 115.388 48.8451 116.992 49.64 118.44C49.8284 118.773 50.1039 119.048 50.4368 119.237C50.7697 119.425 51.1476 119.52 51.53 119.51H71.79C73.0228 119.498 74.2227 119.111 75.23 118.4C76.542 117.417 77.621 116.158 78.39 114.71L78.63 114.29C81.13 109.98 83.56 105.79 83.82 100.82L83.69 95C83.6848 94.9168 83.6848 94.8333 83.69 94.75V93.4C83.69 89.18 83.81 82.72 80.3 82.09H78C78.07 83.9 78 85.76 77.87 87.45C77.87 88.45 77.76 89.38 77.76 90.24C77.7272 90.6671 77.5344 91.066 77.2201 91.357C76.9059 91.648 76.4933 91.8097 76.065 91.8097C75.6367 91.8097 75.2242 91.648 74.9099 91.357C74.5956 91.066 74.4028 90.6671 74.37 90.24C74.37 89.43 74.43 88.39 74.49 87.24C74.73 83.03 75.05 77.41 72.11 76.85H69.91C69.765 76.8537 69.6203 76.8368 69.48 76.8C69.5758 78.8299 69.5457 80.8638 69.39 82.89C69.33 83.89 69.28 84.82 69.28 85.68C69.2472 86.1071 69.0544 86.506 68.7401 86.797C68.4258 87.088 68.0133 87.2497 67.585 87.2497C67.1567 87.2497 66.7442 87.088 66.4299 86.797C66.1157 86.506 65.9228 86.1071 65.89 85.68C65.89 84.87 65.95 83.83 66.01 82.68C66.25 78.48 66.56 72.86 63.63 72.3H61.4C61.2513 72.3004 61.1032 72.2802 60.96 72.24V81C60.9272 81.4271 60.7344 81.826 60.4201 82.117C60.1059 82.408 59.6933 82.5697 59.265 82.5697C58.8367 82.5697 58.4242 82.408 58.1099 82.117C57.7957 81.826 57.6028 81.4271 57.57 81V58.9C57.57 55.9 56.36 54.08 54.83 53.31C54.2789 53.0282 53.669 52.8808 53.05 52.88C52.439 52.8837 51.8369 53.0274 51.29 53.3C49.77 54.08 48.58 55.95 48.58 58.97V94.39C48.5472 94.8171 48.3544 95.216 48.0401 95.507C47.7259 95.798 47.3133 95.9597 46.885 95.9597C46.4567 95.9597 46.0442 95.798 45.7299 95.507C45.4157 95.216 45.2228 94.8171 45.19 94.39V91.26ZM45.19 58.74C45.26 54.38 47.24 51.56 49.76 50.28C50.7805 49.7661 51.9074 49.499 53.05 49.5C54.1972 49.4967 55.3287 49.7675 56.35 50.29C58.93 51.59 60.96 54.49 60.96 58.9V61.37C63.0532 60.4432 64.8979 59.0352 66.3441 57.2606C67.7903 55.4861 68.7971 53.3952 69.2825 51.158C69.7679 48.9209 69.7181 46.6007 69.1374 44.3864C68.5566 42.1721 67.4613 40.1262 65.9404 38.4152C64.4195 36.7042 62.5162 35.3766 60.3852 34.5402C58.2543 33.7038 55.9559 33.3825 53.6773 33.6022C51.3987 33.822 49.2041 34.5766 47.2723 35.8048C45.3404 37.033 43.7259 38.6999 42.56 40.67L42.48 40.81C41.5292 42.4591 40.9127 44.2793 40.6656 46.1667C40.4185 48.0542 40.5457 49.9718 41.04 51.81C41.7475 54.4571 43.1857 56.8517 45.19 58.72V58.74ZM32.47 20.35C33.5309 18.5015 33.814 16.3072 33.257 14.2499C32.7 12.1926 31.3486 10.4409 29.5 9.38001C27.6514 8.31915 25.4572 8.03607 23.3999 8.59305C21.3426 9.15004 19.5909 10.5015 18.53 12.35C17.4776 14.1639 17.1796 16.3185 17.7 18.35L17.76 18.59C18.3222 20.6073 19.6529 22.3237 21.4665 23.3707C23.2801 24.4177 25.4319 24.7119 27.46 24.19L27.7 24.12C29.7139 23.5545 31.4262 22.2227 32.47 20.41V20.35ZM78 16.63C78.9096 15.0529 79.2441 13.2091 78.9468 11.413C78.6494 9.61677 77.7385 7.97925 76.3692 6.77936C74.9999 5.57946 73.257 4.89143 71.4373 4.83248C69.6176 4.77352 67.8338 5.34729 66.3897 6.45603C64.9456 7.56477 63.9306 9.1399 63.5176 10.9131C63.1046 12.6862 63.3192 14.5477 64.1247 16.1805C64.9303 17.8132 66.277 19.1161 67.9354 19.8673C69.5939 20.6184 71.4615 20.7714 73.22 20.3C75.2367 19.7583 76.9559 18.4384 78 16.63Z" fill="white"/>
</g>
<defs>
<clipPath id="clip0_17_114">
<rect width="104.4" height="122.88" fill="white"/>
</clipPath>
</defs>
</svg>
