<svg width="148" height="138" viewBox="0 0 148 138" fill="none" xmlns="http://www.w3.org/2000/svg">
<path d="M90.2742 74.6493C101.264 70.8651 107.051 59.6774 103.203 49.6659C99.3566 39.6534 87.3269 34.6056 76.3379 38.392C65.3489 42.1784 59.5608 53.3628 63.4099 63.3754C67.2579 73.3879 79.2875 78.4346 90.2742 74.6493Z" fill="white"/>
<path d="M85.7359 23.3371C80.8804 23.1599 76.0353 23.8799 71.4794 25.4556C52.6418 31.9459 42.6124 51.2357 49.2643 68.5407C55.9163 85.8457 76.7877 94.5602 95.6254 88.0699V88.0666L95.6277 88.0655C114.463 81.5752 124.492 62.2897 117.84 44.9837C112.852 32.0063 99.8653 23.861 85.7359 23.3371ZM85.4585 30.36C96.651 30.7373 106.787 37.1565 110.711 47.3685C115.945 60.9852 108.1 76.2407 93.0018 81.4426V81.4448H92.9995C77.8989 86.6457 61.627 79.7715 56.3938 66.157C51.1606 52.5413 59.0069 37.2837 74.1064 32.0807C77.7335 30.821 81.5902 30.2364 85.4585 30.36ZM106.458 98.5794C103.744 98.4786 101.036 98.8798 98.4894 99.76C87.9675 103.385 82.3458 114.178 86.0713 123.867C89.7944 133.555 101.493 138.429 112.016 134.803C122.538 131.179 128.158 120.389 124.432 110.7C121.641 103.433 114.361 98.8748 106.458 98.5794ZM106.259 103.599C112.064 103.79 117.304 107.115 119.335 112.403C122.047 119.454 117.99 127.365 110.14 130.07C102.288 132.775 93.8771 129.213 91.168 122.163C88.4566 115.111 92.515 107.199 100.366 104.496C102.249 103.842 104.251 103.537 106.259 103.599ZM26.0919 63.4638C24.1479 63.3918 22.2078 63.6795 20.3835 64.3101C12.8471 66.9084 8.82219 74.6364 11.4897 81.5752C14.1583 88.5141 22.5376 92.0104 30.0741 89.4132C37.6094 86.8149 41.6343 79.0869 38.9668 72.1481C36.9665 66.944 31.7541 63.6762 26.0919 63.4638ZM25.9497 67.0604C30.1076 67.1974 33.8596 69.58 35.3153 73.3675C37.2567 78.4174 34.3499 84.083 28.7282 86.0203C23.1065 87.9577 17.0813 85.4058 15.1399 80.3559C13.1974 75.3059 16.1054 69.6404 21.7271 67.703C23.0762 67.2341 24.5107 67.0159 25.9497 67.0604Z" fill="white"/>
<path d="M49.1869 65.5209L35.601 70.2042L37.7516 75.6304L51.3375 70.9514L49.1869 65.5209ZM98.3761 83.3563L90.221 86.0818L96.8649 103.365L105.02 100.641L98.3761 83.3563ZM128.398 2.71792C124.535 2.59603 120.772 3.87828 117.904 6.29406C111.938 11.3106 111.371 19.8515 116.725 25.2766C122.08 30.7028 131.293 30.9702 137.257 25.9526C143.222 20.9372 143.791 12.3973 138.437 6.9722C135.759 4.25964 132.115 2.83651 128.398 2.71792ZM128.247 6.3167C130.973 6.40079 133.632 7.44658 135.582 9.4217C139.481 13.3709 139.108 19.527 134.66 23.2681C130.213 27.0092 123.478 26.7774 119.579 22.8282C115.681 18.8779 116.051 12.7229 120.501 8.98075C122.615 7.19023 125.392 6.23435 128.247 6.3167Z" fill="white"/>
<path d="M116.44 21.5732L105.681 30.6079L109.835 34.9064L120.591 25.8728L116.44 21.5732ZM72.3443 102.89C67.2337 102.111 62.3022 105.305 61.3287 110.034C60.3551 114.762 63.7672 119.288 68.879 120.065C73.9873 120.843 78.9164 117.651 79.8923 112.923V112.921C80.8635 108.194 77.4537 103.667 72.3443 102.89ZM71.9384 105.206H71.9407C75.7136 105.781 78.1382 109.003 77.4214 112.479C76.7045 115.958 73.0565 118.324 69.2825 117.75C65.5062 117.175 63.0827 113.953 63.7996 110.477C64.5165 106.997 68.1633 104.633 71.9384 105.206Z" fill="white"/>
<path d="M78.6678 110.8L78.0203 114.507L87.1974 115.901L87.8449 112.194L78.6678 110.8ZM15.8672 41.9876C14.606 41.9366 13.3465 42.119 12.1614 42.5246C7.26354 44.1946 4.63191 49.2025 6.34548 53.7123C8.06019 58.222 13.4899 60.5066 18.3867 58.8355C23.2811 57.1666 25.9104 52.1608 24.198 47.6521L24.2003 47.65C22.9145 44.269 19.5406 42.1375 15.8672 41.9876ZM15.7654 44.3207C18.4618 44.4177 20.8923 45.9702 21.8288 48.4316L21.8265 48.4338C23.0753 51.7156 21.1744 55.3855 17.5218 56.6307C13.868 57.8781 9.96454 56.2103 8.71694 52.9274C7.46819 49.6445 9.36907 45.9756 13.024 44.7293H13.0263C13.902 44.4276 14.8325 44.2888 15.7654 44.3207Z" fill="white"/>
<path d="M19.7464 56.8313L15.9528 58.0862L19.0099 66.128L22.8047 64.8752L19.7464 56.8313ZM133.14 66.6843C129.47 66.6088 125.89 68.5246 124.207 71.7924C121.933 76.1265 123.975 81.4093 128.687 83.3316C133.391 85.2873 139.003 83.3359 141.245 78.9814C143.517 74.6516 141.482 69.372 136.776 67.4454H136.772C135.628 66.9683 134.392 66.7095 133.14 66.6843ZM133.075 69.0292C133.997 69.047 134.906 69.2369 135.748 69.5877L135.758 69.5898C139.169 70.9806 140.649 74.7885 138.985 77.9539L138.98 77.9626C137.32 81.1905 133.158 82.6287 129.703 81.1883L129.694 81.184C126.283 79.7932 124.804 75.9853 126.467 72.8199L126.472 72.8113C127.718 70.3898 130.369 68.9775 133.075 69.0292Z" fill="white"/>
<path d="M117.826 66.668L115.604 70.0942L124.033 73.6089L125.676 70.1827L117.826 66.668Z" fill="white"/>
<path d="M108.588 125.96C113.848 124.148 116.618 118.793 114.775 114.002C112.932 109.209 107.176 106.794 101.917 108.606C96.6567 110.417 93.8864 115.772 95.7271 120.563C97.5702 125.357 103.328 127.772 108.586 125.96H108.588ZM27.6552 83.1773C31.4847 81.8576 33.4989 77.9624 32.1588 74.4746C30.8175 70.988 26.6284 69.2285 22.8024 70.5481C18.9729 71.8677 16.9576 75.763 18.2977 79.2496C19.6389 82.7385 23.828 84.4958 27.6552 83.1773ZM130.009 22.4249C133.836 21.1064 135.852 17.21 134.511 13.7244C133.17 10.2356 128.982 8.47828 125.155 9.79683C121.326 11.1154 119.311 15.0117 120.65 18.4995C121.991 21.9872 126.18 23.7456 130.009 22.426V22.4249Z" fill="white"/>
<path d="M127.163 82.0571L115.191 101.463L118.681 103.336L130.652 83.9298L127.163 82.0571Z" fill="white"/>
</svg>
