<svg width="141" height="132" viewBox="0 0 141 132" fill="none" xmlns="http://www.w3.org/2000/svg">
<path d="M56.4166 64.2686V90.6875C56.4166 93.413 54.0506 95.625 51.1354 95.625C48.2201 95.625 45.8541 93.413 45.8541 90.6875V47.8959C45.8541 45.7267 47.3716 43.8109 49.5932 43.1723C51.8008 42.5469 54.2196 43.3336 55.5153 45.1342L56.392 46.3521L56.4166 46.2501L110.053 120.464C128.678 108.617 140.917 88.6467 140.917 66C140.917 29.6403 109.391 0.166748 70.4999 0.166748C31.6088 0.166748 0.083313 29.6403 0.083313 66C0.083313 102.36 31.6088 131.833 70.4999 131.833C81.3511 131.833 91.5897 129.47 100.769 125.372L56.4166 64.2686ZM84.5833 41.3126C84.5833 38.5871 86.9493 36.3751 89.8645 36.3751C92.7798 36.3751 95.1458 38.5871 95.1458 41.3126V83.4129L84.5833 69.2456V41.3126Z" fill="white"/>
</svg>
