<svg width="140" height="131" viewBox="0 0 140 131" fill="none" xmlns="http://www.w3.org/2000/svg">
<path d="M83.475 0.9825L88.725 2.07417L92.9833 3.49333L96.425 5.13083L99.05 6.8775L101.033 8.73333L102.492 10.5892L103.425 12.3904L104.008 14.0279L104.242 15.4471L104.358 16.5387L104.3 17.2483V46.3958L104.008 49.8346L103.25 52.8367L102.025 55.3475L100.508 57.4217L98.7583 59.1138L96.8333 60.4783L94.7917 61.5154L92.75 62.2796L90.825 62.8254L89.075 63.2075L87.5583 63.4258L86.3333 63.535H51.5083L47.4833 63.8079L44.0417 64.5721L41.125 65.7729L38.7333 67.2467L36.8083 68.9933L35.2333 70.9037L34.0667 72.8688L33.1917 74.8883L32.6083 76.7988L32.2 78.5454L31.9667 80.0192L31.85 81.1654V97.8679H18.8417L17.6167 97.7042L15.9833 97.3221L14.1167 96.6671L12.075 95.6846L9.975 94.2654L7.875 92.3004L5.83333 89.7896L3.96667 86.5692L2.33333 82.5846L1.10833 77.7812L0.291667 72.05L0 65.3363L0.35 58.6771L1.28333 53.0004L2.68333 48.2517L4.55 44.3763L6.65 41.265L8.98333 38.8633L11.4333 37.0621L13.8833 35.7521L16.2167 34.8787L18.3167 34.3329L20.1833 34.06L21.5833 34.0054H22.5167L22.8667 34.06H70.4667V29.5296H36.4L36.3417 14.5192L36.225 12.4996L36.5167 10.6438L37.1583 8.95167L38.15 7.42333L39.6083 6.00417L41.4167 4.74875L43.6333 3.65708L46.2 2.67458L49.175 1.85583L52.5583 1.20083L56.2917 0.655L60.4333 0.3275L64.925 0.109167L69.825 0L77.2333 0.272917L83.475 0.9825ZM46.725 11.79L45.3833 13.5913L44.9167 15.8292L45.3833 18.0671L46.725 19.9229L48.65 21.1238L51.0417 21.615L53.4333 21.1238L55.3583 19.9229L56.7 18.0671L57.1667 15.8292L56.7 13.5913L55.3583 11.79L53.4333 10.5892L51.0417 10.0979L48.65 10.5892L46.725 11.79ZM123.083 33.3504L124.717 33.6779L126.583 34.3329L128.625 35.3154L130.725 36.7892L132.825 38.6996L134.867 41.265L136.733 44.4854L138.367 48.47L139.592 53.2733L140.408 58.95L140.7 65.6637L140.35 72.3775L139.417 78.0542L138.017 82.7483L136.15 86.6237L134.05 89.735L131.717 92.1912L129.267 93.9925L126.817 95.3025L124.483 96.1758L122.383 96.6671L120.517 96.94L119.117 97.0492L118.183 96.9946H70.2333V101.47H104.3L104.358 116.535L104.475 118.5L104.183 120.356L103.542 122.048L102.55 123.631L101.092 124.996L99.2833 126.306L97.0667 127.398L94.5 128.325L91.525 129.144L88.1417 129.854L84.4083 130.345L80.2667 130.727L75.775 130.945L70.875 131L63.4667 130.782L57.225 130.018L51.975 128.926L47.7167 127.561L44.275 125.924L41.65 124.123L39.6667 122.267L38.2083 120.411L37.275 118.61L36.6917 116.972L36.4583 115.608L36.3417 114.516L36.4 113.806V84.6588L36.6917 81.1654L37.45 78.2179L38.675 75.7071L40.1917 73.6329L41.9417 71.8863L43.8667 70.5763L45.9083 69.4846L47.95 68.7204L49.875 68.1746L51.625 67.8471L53.1417 67.6288L54.3667 67.5196L55.125 67.465H89.1917L93.2167 67.1921L96.6583 66.4279L99.575 65.2817L101.967 63.7533L103.892 62.0067L105.467 60.0963L106.633 58.1312L107.508 56.1663L108.092 54.2558L108.5 52.5092L108.733 50.9808L108.85 49.8346V33.1321H121.042L121.858 33.1867L123.083 33.3504ZM85.3417 111.132L84 112.933L83.5333 115.171L84 117.409L85.3417 119.21L87.2667 120.465L89.6583 120.902L92.05 120.465L93.975 119.21L95.3167 117.409L95.7833 115.171L95.3167 112.933L93.975 111.132L92.05 109.876L89.6583 109.44L87.2667 109.876L85.3417 111.132Z" fill="white"/>
</svg>
