<svg width="155" height="162" viewBox="0 0 155 162" fill="none" xmlns="http://www.w3.org/2000/svg">
<path d="M96.875 13.5H38.75C35.3243 13.5 32.0389 14.9223 29.6165 17.4541C27.1942 19.9858 25.8333 23.4196 25.8333 27V135C25.8333 138.58 27.1942 142.014 29.6165 144.546C32.0389 147.078 35.3243 148.5 38.75 148.5H116.25C119.676 148.5 122.961 147.078 125.383 144.546C127.806 142.014 129.167 138.58 129.167 135V47.25L96.875 13.5Z" stroke="white" stroke-width="3" stroke-linecap="round" stroke-linejoin="round"/>
<path d="M90.4167 13.5V40.5C90.4167 44.0804 91.7775 47.5142 94.1999 50.0459C96.6222 52.5777 99.9076 54 103.333 54H129.167" stroke="white" stroke-width="3" stroke-linecap="round" stroke-linejoin="round"/>
<path d="M77.5 81V121.5" stroke="white" stroke-width="3" stroke-linecap="round" stroke-linejoin="round"/>
<path d="M96.875 101.25L77.5 81L58.125 101.25" stroke="white" stroke-width="3" stroke-linecap="round" stroke-linejoin="round"/>
</svg>
