<svg width="125" height="128" viewBox="0 0 125 128" fill="none" xmlns="http://www.w3.org/2000/svg">
<path d="M93.75 42.6666C102.379 42.6666 109.375 35.5032 109.375 26.6666C109.375 17.8301 102.379 10.6666 93.75 10.6666C85.1206 10.6666 78.125 17.8301 78.125 26.6666C78.125 35.5032 85.1206 42.6666 93.75 42.6666Z" stroke="white" stroke-width="3" stroke-linecap="round" stroke-linejoin="round"/>
<path d="M31.25 80C39.8794 80 46.875 72.8366 46.875 64C46.875 55.1634 39.8794 48 31.25 48C22.6206 48 15.625 55.1634 15.625 64C15.625 72.8366 22.6206 80 31.25 80Z" stroke="white" stroke-width="3" stroke-linecap="round" stroke-linejoin="round"/>
<path d="M93.75 117.333C102.379 117.333 109.375 110.17 109.375 101.333C109.375 92.4968 102.379 85.3334 93.75 85.3334C85.1206 85.3334 78.125 92.4968 78.125 101.333C78.125 110.17 85.1206 117.333 93.75 117.333Z" stroke="white" stroke-width="3" stroke-linecap="round" stroke-linejoin="round"/>
<path d="M44.7396 72.0533L80.3125 93.28" stroke="white" stroke-width="3" stroke-linecap="round" stroke-linejoin="round"/>
<path d="M80.2604 34.72L44.7396 55.9466" stroke="white" stroke-width="3" stroke-linecap="round" stroke-linejoin="round"/>
</svg>
