<svg version="1.1" id="Layer_1" xmlns="http://www.w3.org/2000/svg" xmlns:xlink="http://www.w3.org/1999/xlink" x="0px" y="0px"
	 width="100%" viewBox="0 0 159 100" enable-background="new 0 0 159 100" xml:space="preserve">

<path fill="#FFFFFF" opacity="1.000000" stroke="none" 
	d="
M62.333332,101.000000 
	C60.650349,98.204872 59.610023,95.202286 57.898273,92.650009 
	C49.868305,80.677048 41.567955,68.885506 33.529499,56.918125 
	C25.731756,45.309101 18.173122,33.539722 10.429214,21.894140 
	C7.827841,17.982098 4.979891,14.234021 1.713981,9.669299 
	C26.699890,9.669299 51.062634,9.669299 76.719490,9.669299 
	C71.084206,18.202820 66.040596,25.840378 61.156052,33.237053 
	C57.039143,33.237053 53.131641,33.237053 47.885796,33.237053 
	C52.811062,41.048531 57.385326,48.303322 62.598774,56.571857 
	C65.978149,51.845673 68.866699,47.985714 71.564995,43.997063 
	C78.433159,33.844494 85.186844,23.614492 92.053215,13.460700 
	C93.866539,10.779215 95.922432,8.261764 98.260651,5.465459 
	C99.137810,5.495053 99.621246,5.728175 100.104683,5.961296 
	C101.322525,7.425552 102.540367,8.889809 103.956696,10.871336 
	C104.310997,11.657368 104.528656,11.859559 104.808159,11.995179 
	C120.514923,35.629616 136.210556,59.271469 151.940231,82.890633 
	C154.350906,86.510414 156.918716,90.025543 159.706940,93.294540 
	C160.000000,93.444443 160.000000,93.888893 159.629028,94.305984 
	C158.157944,94.504120 157.058121,94.924698 155.957687,94.926315 
	C133.304138,94.959633 110.650520,94.947433 87.996925,94.932373 
	C87.078194,94.931763 86.159554,94.814659 84.618187,94.709251 
	C90.390236,86.158974 95.776413,78.180305 100.876106,70.626007 
	C105.689034,70.626007 109.922462,70.626007 114.575653,70.626007 
	C109.436806,63.004101 104.519806,55.711254 99.070465,47.628834 
	C95.544853,52.445400 92.658493,56.154152 90.024078,60.033978 
	C83.486870,69.661629 76.975578,79.309555 70.640968,89.070740 
	C68.169151,92.879623 66.198769,97.013916 64.000000,101.000000 
	C63.555553,101.000000 63.111111,101.000000 62.333332,101.000000 
M96.583885,15.516461 
	C96.583885,15.516461 96.477203,15.579169 96.583885,15.516461 
z"/>


</svg>
